HIERARCHY
ROOT Hips
{
	OFFSET 0.000000 97.167313 0.000000
	CHANNELS 6 Xposition Yposition Zposition Xrotation Yrotation Zrotation
	JOINT Spine
	{
		OFFSET 0.000000 13.784798 0.064400
		CHANNELS 3 Xrotation Yrotation Zrotation
		JOINT Spine1
		{
			OFFSET 0.000000 12.037903 0.404700
			CHANNELS 3 Xrotation Yrotation Zrotation
			JOINT Spine2
			{
				OFFSET 0.000000 17.795601 0.420200
				CHANNELS 3 Xrotation Yrotation Zrotation
				JOINT Neck
				{
					OFFSET 0.000000 39.131302 11.954600
					CHANNELS 3 Xrotation Yrotation Zrotation
					JOINT Head
					{
						OFFSET 0.000000 14.456192 15.627699
						CHANNELS 3 Xrotation Yrotation Zrotation
						JOINT HeadTop_End
						{
							OFFSET 0.000000 15.703506 7.603401
							CHANNELS 3 Xrotation Yrotation Zrotation
							End Site
							{
								OFFSET 0.000000 17.447403 0.000000
							}
						}
					}
				}
				JOINT LeftShoulder
				{
					OFFSET 17.399500 24.608795 1.168800
					CHANNELS 3 Xrotation Yrotation Zrotation
					JOINT LeftArm
					{
						OFFSET 18.980635 5.765305 1.818600
						CHANNELS 3 Xrotation Yrotation Zrotation
						JOINT LeftForeArm
						{
							OFFSET 49.290169 0.000000 0.000000
							CHANNELS 3 Xrotation Yrotation Zrotation
							JOINT LeftHand
							{
								OFFSET 31.562012 0.000000 0.000000
								CHANNELS 3 Xrotation Yrotation Zrotation
								JOINT LeftHandThumb1
								{
									OFFSET 6.133995 -4.388519 7.076070
									CHANNELS 3 Xrotation Yrotation Zrotation
									JOINT LeftHandThumb2
									{
										OFFSET 6.037666 -3.485840 3.485847
										CHANNELS 3 Xrotation Yrotation Zrotation
										JOINT LeftHandThumb3
										{
											OFFSET 6.496506 -3.750763 3.750761
											CHANNELS 3 Xrotation Yrotation Zrotation
											JOINT LeftHandThumb4
											{
												OFFSET 5.616882 -3.242905 3.242910
												CHANNELS 3 Xrotation Yrotation Zrotation
												End Site
												{
													OFFSET -1.254608 7.132141 0.375429
												}
											}
										}
									}
								}
								JOINT LeftHandPinky1
								{
									OFFSET 18.920792 -0.453171 -11.426712
									CHANNELS 3 Xrotation Yrotation Zrotation
									JOINT LeftHandPinky2
									{
										OFFSET 4.919586 0.000000 0.000000
										CHANNELS 3 Xrotation Yrotation Zrotation
										JOINT LeftHandPinky3
										{
											OFFSET 5.233047 0.000000 0.000000
											CHANNELS 3 Xrotation Yrotation Zrotation
											JOINT LeftHandPinky4
											{
												OFFSET 5.571716 0.000000 0.000000
												CHANNELS 3 Xrotation Yrotation Zrotation
												End Site
												{
													OFFSET -3.459808 4.342407 -0.466164
												}
											}
										}
									}
								}
								JOINT LeftHandRing1
								{
									OFFSET 22.726120 -0.094986 -6.500475
									CHANNELS 3 Xrotation Yrotation Zrotation
									JOINT LeftHandRing2
									{
										OFFSET 6.408615 0.000000 0.000000
										CHANNELS 3 Xrotation Yrotation Zrotation
										JOINT LeftHandRing3
										{
											OFFSET 6.150223 0.000000 0.000000
											CHANNELS 3 Xrotation Yrotation Zrotation
											JOINT LeftHandRing4
											{
												OFFSET 6.145386 0.000000 0.000000
												CHANNELS 3 Xrotation Yrotation Zrotation
												End Site
												{
													OFFSET -3.671402 4.923981 -0.202372
												}
											}
										}
									}
								}
								JOINT LeftHandMiddle1
								{
									OFFSET 23.373947 0.000000 0.000001
									CHANNELS 3 Xrotation Yrotation Zrotation
									JOINT LeftHandMiddle2
									{
										OFFSET 6.996567 0.000000 0.000000
										CHANNELS 3 Xrotation Yrotation Zrotation
										JOINT LeftHandMiddle3
										{
											OFFSET 7.015945 0.000000 0.000000
											CHANNELS 3 Xrotation Yrotation Zrotation
											JOINT LeftHandMiddle4
											{
												OFFSET 7.721573 0.000000 0.000000
												CHANNELS 3 Xrotation Yrotation Zrotation
												End Site
												{
													OFFSET -4.651108 6.158463 0.251582
												}
											}
										}
									}
								}
								JOINT LeftHandIndex1
								{
									OFFSET 21.310577 -0.490082 6.209344
									CHANNELS 3 Xrotation Yrotation Zrotation
									JOINT LeftHandIndex2
									{
										OFFSET 7.536453 0.000000 0.000000
										CHANNELS 3 Xrotation Yrotation Zrotation
										JOINT LeftHandIndex3
										{
											OFFSET 7.512344 0.000000 0.000000
											CHANNELS 3 Xrotation Yrotation Zrotation
											JOINT LeftHandIndex4
											{
												OFFSET 10.212402 0.000000 0.000001
												CHANNELS 3 Xrotation Yrotation Zrotation
												End Site
												{
													OFFSET -5.180801 8.690506 1.388433
												}
											}
										}
									}
								}
							}
						}
					}
				}
				JOINT RightShoulder
				{
					OFFSET -17.399500 24.608795 1.168800
					CHANNELS 3 Xrotation Yrotation Zrotation
					JOINT RightArm
					{
						OFFSET -18.980635 5.765305 1.818600
						CHANNELS 3 Xrotation Yrotation Zrotation
						JOINT RightForeArm
						{
							OFFSET -49.290169 0.000000 0.000000
							CHANNELS 3 Xrotation Yrotation Zrotation
							JOINT RightHand
							{
								OFFSET -31.562012 0.000000 0.000000
								CHANNELS 3 Xrotation Yrotation Zrotation
								JOINT RightHandThumb1
								{
									OFFSET -6.133995 -4.388519 7.076070
									CHANNELS 3 Xrotation Yrotation Zrotation
									JOINT RightHandThumb2
									{
										OFFSET -6.037666 -3.485840 3.485847
										CHANNELS 3 Xrotation Yrotation Zrotation
										JOINT RightHandThumb3
										{
											OFFSET -6.496506 -3.750763 3.750761
											CHANNELS 3 Xrotation Yrotation Zrotation
											JOINT RightHandThumb4
											{
												OFFSET -5.616882 -3.242905 3.242910
												CHANNELS 3 Xrotation Yrotation Zrotation
												End Site
												{
													OFFSET 1.254608 7.132141 0.375429
												}
											}
										}
									}
								}
								JOINT RightHandIndex1
								{
									OFFSET -21.310577 -0.490082 6.209344
									CHANNELS 3 Xrotation Yrotation Zrotation
									JOINT RightHandIndex2
									{
										OFFSET -7.536453 0.000000 0.000000
										CHANNELS 3 Xrotation Yrotation Zrotation
										JOINT RightHandIndex3
										{
											OFFSET -7.512344 0.000000 0.000000
											CHANNELS 3 Xrotation Yrotation Zrotation
											JOINT RightHandIndex4
											{
												OFFSET -10.212402 0.000000 0.000001
												CHANNELS 3 Xrotation Yrotation Zrotation
												End Site
												{
													OFFSET 5.180801 8.690506 1.388433
												}
											}
										}
									}
								}
								JOINT RightHandMiddle1
								{
									OFFSET -23.373947 0.000000 0.000001
									CHANNELS 3 Xrotation Yrotation Zrotation
									JOINT RightHandMiddle2
									{
										OFFSET -6.996567 0.000000 0.000000
										CHANNELS 3 Xrotation Yrotation Zrotation
										JOINT RightHandMiddle3
										{
											OFFSET -7.015945 0.000000 0.000000
											CHANNELS 3 Xrotation Yrotation Zrotation
											JOINT RightHandMiddle4
											{
												OFFSET -7.721573 0.000000 0.000000
												CHANNELS 3 Xrotation Yrotation Zrotation
												End Site
												{
													OFFSET 4.651108 6.158463 0.251582
												}
											}
										}
									}
								}
								JOINT RightHandRing1
								{
									OFFSET -22.726120 -0.094986 -6.500475
									CHANNELS 3 Xrotation Yrotation Zrotation
									JOINT RightHandRing2
									{
										OFFSET -6.408615 0.000000 0.000000
										CHANNELS 3 Xrotation Yrotation Zrotation
										JOINT RightHandRing3
										{
											OFFSET -6.150223 0.000000 0.000000
											CHANNELS 3 Xrotation Yrotation Zrotation
											JOINT RightHandRing4
											{
												OFFSET -6.145386 0.000000 0.000000
												CHANNELS 3 Xrotation Yrotation Zrotation
												End Site
												{
													OFFSET 3.671402 4.923981 -0.202372
												}
											}
										}
									}
								}
								JOINT RightHandPinky1
								{
									OFFSET -18.920792 -0.453171 -11.426712
									CHANNELS 3 Xrotation Yrotation Zrotation
									JOINT RightHandPinky2
									{
										OFFSET -4.919586 0.000000 0.000000
										CHANNELS 3 Xrotation Yrotation Zrotation
										JOINT RightHandPinky3
										{
											OFFSET -5.233047 0.000000 0.000000
											CHANNELS 3 Xrotation Yrotation Zrotation
											JOINT RightHandPinky4
											{
												OFFSET -5.571716 0.000000 0.000000
												CHANNELS 3 Xrotation Yrotation Zrotation
												End Site
												{
													OFFSET 3.459808 4.342407 -0.466164
												}
											}
										}
									}
								}
							}
						}
					}
				}
			}
		}
	}
	JOINT LeftUpLeg
	{
		OFFSET 19.899099 -7.885101 -3.429500
		CHANNELS 3 Xrotation Yrotation Zrotation
		JOINT LeftLeg
		{
			OFFSET 1.745560 -36.997807 10.304700
			CHANNELS 3 Xrotation Yrotation Zrotation
			JOINT LeftFoot
			{
				OFFSET -1.745558 -29.803308 -13.615400
				CHANNELS 3 Xrotation Yrotation Zrotation
				JOINT LeftToeBase
				{
					OFFSET 1.181900 -18.539904 15.226099
					CHANNELS 3 Xrotation Yrotation Zrotation
					JOINT LeftToe_End
					{
						OFFSET -0.863701 1.402801 16.534700
						CHANNELS 3 Xrotation Yrotation Zrotation
						End Site
						{
							OFFSET 0.000000 16.616566 0.000000
						}
					}
				}
			}
		}
	}
	JOINT RightUpLeg
	{
		OFFSET -19.899099 -7.885101 -3.429500
		CHANNELS 3 Xrotation Yrotation Zrotation
		JOINT RightLeg
		{
			OFFSET -1.745560 -36.997807 10.304700
			CHANNELS 3 Xrotation Yrotation Zrotation
			JOINT RightFoot
			{
				OFFSET 1.745558 -29.803308 -13.615400
				CHANNELS 3 Xrotation Yrotation Zrotation
				JOINT RightToeBase
				{
					OFFSET -1.181900 -18.539904 15.226099
					CHANNELS 3 Xrotation Yrotation Zrotation
					JOINT RightToe_End
					{
						OFFSET 0.863701 1.402801 16.534700
						CHANNELS 3 Xrotation Yrotation Zrotation
						End Site
						{
							OFFSET 0.000000 16.616566 0.000000
						}
					}
				}
			}
		}
	}
}
MOTION
Frames: 4
Frame Time: 0.033333
-0.467186 72.008179 0.691437 -5.399175 -46.316657 -0.344533 9.440757 7.287417 -1.527784 2.187522 0.981079 -0.913712 2.203078 0.995665 -0.898690 0.084652 13.220547 4.538679 8.920729 20.143761 -4.128495 0.000000 0.000000 -0.000000 1.117180 3.546355 -8.633310 -53.488782 4.934509 -51.502355 -0.000145 -106.357793 -0.000178 1.988847 -7.705496 -15.870385 -6.121500 -11.668098 -6.758199 9.914178 42.595519 3.409811 -0.439329 8.080047 27.506038 0.000003 0.000004 -0.000001 -3.745337 9.064522 -45.251561 5.342544 5.828995 -85.005324 8.716873 5.103315 -119.369563 -0.000001 -0.000001 -0.000002 0.477395 4.976082 -39.800697 8.182001 5.368188 -113.513168 3.200524 5.218133 -63.023317 -0.000001 0.000000 0.000003 -0.453585 3.851033 -39.721597 6.453023 5.820122 -95.915199 2.183059 4.561708 -51.129932 0.000001 -0.000001 0.000008 0.272963 3.377111 -45.812804 5.654101 5.847762 -88.067441 2.162145 4.544813 -50.866389 0.000001 -0.000001 0.000001 3.036128 13.027201 -5.371408 -48.713729 27.172822 83.457064 -0.000078 105.988294 0.000115 -8.345362 17.548083 8.775649 -7.316314 13.747330 7.400437 9.864216 -44.490193 -3.883271 -0.144104 -14.489715 -28.971969 -0.000001 -0.000003 0.000004 -0.121903 -2.374784 45.109301 4.500591 -4.654546 88.071143 1.723222 -3.618370 50.920133 -0.000001 -0.000003 -0.000001 -0.767451 -2.925734 39.031611 5.133936 -4.632747 95.882148 1.739030 -3.631138 51.170234 0.000001 0.000000 -0.000004 0.147512 -4.060010 39.124802 6.509750 -4.273567 113.463068 2.549540 -4.153888 63.066811 -0.000001 0.000001 -0.000001 -4.211678 -8.022134 44.634531 4.252909 -4.639629 85.014811 6.935970 -4.062646 119.322285 -0.000001 -0.000001 0.000007 -33.569717 4.026651 22.749156 57.659494 -10.178385 2.632353 -21.483894 -5.744511 -18.032989 -1.594042 -0.000003 -0.000009 -0.000000 -0.000003 -0.000000 -13.809720 -10.722524 -37.479239 58.014090 0.788656 -2.915237 -32.477201 -13.075324 26.174115 -0.006126 0.000022 0.000009 0.000000 -0.000000 -0.000000 
-0.319941 71.708252 0.771230 -5.890244 -46.537743 -1.164400 10.108817 7.057036 -1.110815 2.623734 1.019630 -0.837248 2.637419 1.021140 -0.819040 0.123856 13.293481 4.415361 8.634480 20.424844 -4.421914 -0.000001 0.000000 0.000000 1.060552 3.751425 -8.597037 -53.309818 4.814815 -51.763709 -0.000140 -106.169164 -0.000151 1.940209 -8.032411 -15.606438 -6.121496 -11.668095 -6.758208 9.914173 42.595515 3.409823 -0.439333 8.080051 27.506044 -0.000001 -0.000002 -0.000002 -3.745317 9.064517 -45.251543 5.342534 5.828993 -85.005324 8.716874 5.103320 -119.369536 -0.000002 -0.000000 -0.000004 0.477395 4.976088 -39.800701 8.181993 5.368187 -113.513161 3.200529 5.218136 -63.023351 -0.000001 0.000004 0.000004 -0.453587 3.851041 -39.721590 6.453023 5.820117 -95.915233 2.183060 4.561707 -51.129898 0.000000 -0.000001 0.000002 0.272966 3.377115 -45.812801 5.654101 5.847760 -88.067448 2.162143 4.544809 -50.866389 0.000000 0.000002 -0.000004 3.072363 13.275122 -5.513213 -48.252346 26.991569 83.484747 0.000116 105.812935 -0.000109 -8.490943 17.747036 8.604522 -7.316302 13.747335 7.400406 9.861860 -44.470826 -3.882685 -0.144104 -14.489707 -28.971962 -0.000002 0.000001 -0.000001 -0.121911 -2.374786 45.109291 4.500596 -4.654539 88.071143 1.723220 -3.618370 50.920129 -0.000001 -0.000003 -0.000004 -0.767449 -2.925729 39.031621 5.133933 -4.632756 95.882127 1.739038 -3.631135 51.170240 0.000000 0.000002 -0.000004 0.147517 -4.060004 39.124826 6.509741 -4.273576 113.463062 2.549556 -4.153907 63.066811 -0.000002 -0.000001 -0.000005 -4.211679 -8.022131 44.634518 4.252907 -4.639630 85.014818 6.935973 -4.062650 119.322285 0.000001 0.000001 0.000004 -33.988445 3.428063 23.347791 58.933017 -10.130806 2.664277 -21.299602 -5.940068 -18.092218 -1.973553 -0.000015 0.000211 -0.000000 -0.000000 0.000000 -13.728311 -10.645568 -37.290220 58.297468 1.065738 -2.852457 -32.510573 -12.977126 26.091770 -0.006108 -0.000053 0.000005 0.000000 -0.000000 -0.000001 
-0.165802 71.389450 0.875379 -6.364890 -46.900976 -2.030382 10.728585 6.768464 -0.751027 3.110907 1.059545 -0.751391 3.122418 1.050614 -0.732971 0.184595 13.448515 4.279949 8.663959 20.955490 -4.888253 -0.000001 -0.000000 0.000000 0.897019 4.120212 -8.325798 -52.828781 4.981067 -52.215430 0.000003 -106.252875 -0.000024 2.207738 -8.216626 -15.449861 -6.121505 -11.668106 -6.758202 9.914178 42.595515 3.409825 -0.439341 8.080043 27.506034 -0.000003 0.000001 -0.000004 -3.745322 9.064516 -45.251543 5.342540 5.829001 -85.005317 8.716879 5.103322 -119.369563 0.000000 -0.000002 0.000001 0.477396 4.976084 -39.800704 8.181994 5.368189 -113.513168 3.200530 5.218143 -63.023337 -0.000001 0.000001 0.000002 -0.453577 3.851031 -39.721587 6.453027 5.820116 -95.915213 2.183062 4.561707 -51.129936 0.000001 -0.000000 0.000001 0.272966 3.377107 -45.812794 5.654104 5.847757 -88.067441 2.162146 4.544811 -50.866386 0.000000 0.000003 -0.000003 3.089056 13.664364 -5.306072 -48.013713 27.203752 83.118368 -0.000087 105.617749 0.000098 -8.578026 17.708741 8.818363 -7.316313 13.747346 7.400428 9.861627 -44.468913 -3.882612 -0.144112 -14.489743 -28.971982 -0.000001 0.000002 0.000003 -0.121911 -2.374780 45.109288 4.500596 -4.654547 88.071150 1.723219 -3.618370 50.920139 -0.000001 -0.000003 -0.000001 -0.767454 -2.925727 39.031618 5.133929 -4.632753 95.882141 1.739034 -3.631136 51.170244 0.000001 0.000001 -0.000001 0.147516 -4.060002 39.124789 6.509749 -4.273576 113.463068 2.549549 -4.153898 63.066825 -0.000002 -0.000001 -0.000000 -4.211694 -8.022133 44.634514 4.252907 -4.639631 85.014818 6.935972 -4.062645 119.322285 -0.000003 -0.000001 0.000007 -34.116091 2.883073 24.012679 60.189574 -10.225679 2.534442 -21.585092 -5.696589 -17.992964 -2.370207 0.000003 0.000456 -0.000000 -0.000000 -0.000000 -13.875137 -10.589905 -37.080916 58.606226 1.496113 -2.872120 -32.510416 -12.794558 25.907657 -0.037117 0.000003 0.000004 0.000000 0.000000 -0.000000 
0.011859 71.018845 1.019736 -6.830197 -47.294976 -2.954057 11.364220 6.671144 -0.439637 3.651972 1.121374 -0.587258 3.663442 1.116529 -0.570051 0.210538 13.597796 4.128873 8.816490 21.356927 -5.591114 -0.000001 0.000000 0.000000 1.046787 3.847802 -8.632659 -53.180744 4.772951 -51.699041 0.000052 -106.613604 0.000044 2.302730 -7.670393 -15.297284 -6.121508 -11.668098 -6.758198 9.914177 42.595512 3.409815 -0.439330 8.080048 27.506038 0.000002 -0.000002 -0.000001 -3.745331 9.064524 -45.251550 5.342536 5.828996 -85.005331 8.716873 5.103321 -119.369550 -0.000000 0.000000 -0.000002 0.477392 4.976082 -39.800694 8.181997 5.368194 -113.513147 3.200533 5.218130 -63.023344 -0.000000 -0.000001 0.000005 -0.453578 3.851035 -39.721587 6.453029 5.820126 -95.915220 2.183065 4.561704 -51.129936 -0.000000 0.000000 0.000008 0.272962 3.377110 -45.812780 5.654099 5.847760 -88.067448 2.162147 4.544808 -50.866389 -0.000002 0.000002 -0.000003 3.089915 13.500689 -5.478806 -47.890831 27.340450 83.040463 -0.000056 105.602484 0.000077 -8.443213 17.801102 9.027051 -7.316301 13.747337 7.400406 9.862289 -44.474425 -3.882794 -0.144109 -14.489732 -28.971962 0.000002 -0.000002 0.000002 -0.121912 -2.374790 45.109295 4.500594 -4.654544 88.071143 1.723221 -3.618366 50.920136 -0.000001 -0.000003 -0.000001 -0.767447 -2.925736 39.031611 5.133925 -4.632752 95.882148 1.739037 -3.631135 51.170234 0.000000 -0.000002 -0.000004 0.147517 -4.060016 39.124789 6.509749 -4.273575 113.463062 2.549541 -4.153898 63.066791 -0.000002 -0.000001 -0.000007 -4.211676 -8.022133 44.634514 4.252907 -4.639630 85.014818 6.935975 -4.062650 119.322285 0.000001 0.000002 0.000004 -34.236528 2.021568 24.797198 61.594892 -10.172391 2.139657 -21.848203 -5.524662 -17.909588 -2.876599 -0.000005 0.000579 -0.000000 0.000000 0.000000 -14.090868 -10.532766 -36.853911 58.944041 1.983985 -2.929954 -32.493518 -12.609956 25.733129 -0.068198 0.000027 -0.000002 -0.000000 0.000001 -0.000001 
